<svg width="512" height="512" version="1.1" xmlns="http://www.w3.org/2000/svg" desc="Created with imagetracer.js version 1.2.6" ><path fill="rgb(244,221,92)" stroke="rgb(244,221,92)" stroke-width="1" opacity="0.9490196078431372" d="M 236.5 27 L 240 27.5 L 236.5 28 L 236.5 27 Z " /><path fill="rgb(244,221,92)" stroke="rgb(244,221,92)" stroke-width="1" opacity="0.9490196078431372" d="M 246.5 28 L 250 28.5 L 246.5 29 L 246.5 28 Z " /><path fill="rgb(244,221,92)" stroke="rgb(244,221,92)" stroke-width="1" opacity="0.9490196078431372" d="M 256.5 29 L 259 29.5 L 256.5 30 L 256.5 29 Z " /><path fill="rgb(244,221,92)" stroke="rgb(244,221,92)" stroke-width="1" opacity="0.9490196078431372" d="M 373.5 79 L 375.5 82 L 373.5 79 Z " /><path fill="rgb(244,221,92)" stroke="rgb(244,221,92)" stroke-width="1" opacity="0.9490196078431372" d="M 381.5 86 L 386.5 92 L 381.5 86 Z " /><path fill="rgb(244,221,92)" stroke="rgb(244,221,92)" stroke-width="1" opacity="0.9490196078431372" d="M 301.5 89 L 302.5 91 L 301.5 89 Z " /><path fill="rgb(244,221,92)" stroke="rgb(244,221,92)" stroke-width="1" opacity="0.9490196078431372" d="M 306.5 93 L 308.5 96 L 306.5 93 Z " /><path fill="rgb(244,221,92)" stroke="rgb(244,221,92)" stroke-width="1" opacity="0.9490196078431372" d="M 394.5 99 L 397.5 103 L 394.5 99 Z " /><path fill="rgb(244,221,92)" stroke="rgb(244,221,92)" stroke-width="1" opacity="0.9490196078431372" d="M 401.5 107 L 402.5 109 L 401.5 107 Z " /><path fill="rgb(244,221,92)" stroke="rgb(244,221,92)" stroke-width="1" opacity="0.9490196078431372" d="M 344.5 111 L 345.5 113 L 344.5 111 Z " /><path fill="rgb(244,221,92)" stroke="rgb(244,221,92)" stroke-width="1" opacity="0.9490196078431372" d="M 327.5 114 L 328.5 116 L 327.5 114 Z " /><path fill="rgb(244,221,92)" stroke="rgb(244,221,92)" stroke-width="1" opacity="0.9490196078431372" d="M 351.5 117 L 352.5 119 L 351.5 117 Z " /><path fill="rgb(244,221,92)" stroke="rgb(244,221,92)" stroke-width="1" opacity="0.9490196078431372" d="M 410.5 118 L 411.5 120 L 410.5 118 Z " /><path fill="rgb(244,221,92)" stroke="rgb(244,221,92)" stroke-width="1" opacity="0.9490196078431372" d="M 413.5 122 L 414.5 124 L 413.5 122 Z " /><path fill="rgb(244,221,92)" stroke="rgb(244,221,92)" stroke-width="1" opacity="0.9490196078431372" d="M 421.5 134 L 422.5 136 L 421.5 134 Z " /><path fill="rgb(244,221,92)" stroke="rgb(244,221,92)" stroke-width="1" opacity="0.9490196078431372" d="M 371.5 216 L 372 218.5 L 371 218.5 L 371.5 216 Z " /><path fill="rgb(244,221,92)" stroke="rgb(244,221,92)" stroke-width="1" opacity="0.9490196078431372" d="M 454.5 223 L 455 225.5 L 454 225.5 L 454.5 223 Z " /><path fill="rgb(244,221,92)" stroke="rgb(244,221,92)" stroke-width="1" opacity="0.9490196078431372" d="M 372.5 232 L 373 237.5 L 372 237.5 L 372.5 232 Z " /><path fill="rgb(244,221,92)" stroke="rgb(244,221,92)" stroke-width="1" opacity="0.9490196078431372" d="M 455.5 233 L 456 235.5 L 455 235.5 L 455.5 233 Z " /><path fill="rgb(244,221,92)" stroke="rgb(244,221,92)" stroke-width="1" opacity="0.9490196078431372" d="M 456.5 243 L 457 251.5 L 456 251.5 L 456.5 243 Z " /><path fill="rgb(244,221,92)" stroke="rgb(244,221,92)" stroke-width="1" opacity="0.9490196078431372" d="M 413.5 247 L 414 252.5 L 413 252.5 L 413.5 247 Z " /><path fill="rgb(244,221,92)" stroke="rgb(244,221,92)" stroke-width="1" opacity="0.9490196078431372" d="M 371.5 251 L 372 254.5 L 371 254.5 L 371.5 251 Z " /><path fill="rgb(244,221,92)" stroke="rgb(244,221,92)" stroke-width="1" opacity="0.9490196078431372" d="M 413.5 258 L 414 265.5 L 413 265.5 L 413.5 258 Z " /><path fill="rgb(244,221,92)" stroke="rgb(244,221,92)" stroke-width="1" opacity="0.9490196078431372" d="M 370.5 260 L 371 262.5 L 370 262.5 L 370.5 260 Z " /><path fill="rgb(244,221,92)" stroke="rgb(244,221,92)" stroke-width="1" opacity="0.9490196078431372" d="M 456.5 260 L 457 268.5 L 456 268.5 L 456.5 260 Z " /><path fill="rgb(244,221,92)" stroke="rgb(244,221,92)" stroke-width="1" opacity="0.9490196078431372" d="M 455.5 276 L 456 278.5 L 455 278.5 L 455.5 276 Z " /><path fill="rgb(244,221,92)" stroke="rgb(244,221,92)" stroke-width="1" opacity="0.9490196078431372" d="M 454.5 286 L 455 288.5 L 454 288.5 L 454.5 286 Z " /><path fill="rgb(244,221,92)" stroke="rgb(244,221,92)" stroke-width="1" opacity="0.9490196078431372" d="M 335.5 346 L 334.5 348 L 335.5 346 Z " /><path fill="rgb(244,221,92)" stroke="rgb(244,221,92)" stroke-width="1" opacity="0.9490196078431372" d="M 326.5 357 L 325.5 359 L 326.5 357 Z " /><path fill="rgb(244,221,92)" stroke="rgb(244,221,92)" stroke-width="1" opacity="0.9490196078431372" d="M 310.5 373 L 308.5 376 L 310.5 373 Z " /><path fill="rgb(244,221,92)" stroke="rgb(244,221,92)" stroke-width="1" opacity="0.9490196078431372" d="M 367.5 378 L 366.5 380 L 367.5 378 Z " /><path fill="rgb(244,221,92)" stroke="rgb(244,221,92)" stroke-width="1" opacity="0.9490196078431372" d="M 295.5 385 L 294.5 387 L 295.5 385 Z " /><path fill="rgb(244,221,92)" stroke="rgb(244,221,92)" stroke-width="1" opacity="0.9490196078431372" d="M 411.5 392 L 410.5 394 L 411.5 392 Z " /><path fill="rgb(244,221,92)" stroke="rgb(244,221,92)" stroke-width="1" opacity="0.9490196078431372" d="M 351.5 394 L 350.5 396 L 351.5 394 Z " /><path fill="rgb(244,221,92)" stroke="rgb(244,221,92)" stroke-width="1" opacity="0.9490196078431372" d="M 402.5 403 L 401.5 405 L 402.5 403 Z " /><path fill="rgb(244,221,92)" stroke="rgb(244,221,92)" stroke-width="1" opacity="0.9490196078431372" d="M 397.5 409 L 393.5 414 L 397.5 409 Z " /><path fill="rgb(244,221,92)" stroke="rgb(244,221,92)" stroke-width="1" opacity="0.9490196078431372" d="M 165.5 419 L 168 419.5 L 165.5 420 L 165.5 419 Z " /><path fill="rgb(244,221,92)" stroke="rgb(244,221,92)" stroke-width="1" opacity="0.9490196078431372" d="M 177.5 420 L 198 420.5 L 177.5 421 L 177.5 420 Z " /><path fill="rgb(244,221,92)" stroke="rgb(244,221,92)" stroke-width="1" opacity="0.9490196078431372" d="M 386.5 420 L 381.5 426 L 386.5 420 Z " /><path fill="rgb(244,221,92)" stroke="rgb(244,221,92)" stroke-width="1" opacity="0.9490196078431372" d="M 375.5 430 L 373.5 433 L 375.5 430 Z " /><path fill="rgb(244,221,92)" stroke="rgb(244,221,92)" stroke-width="1" opacity="0.9490196078431372" d="M 255.5 482 L 259 482.5 L 255.5 483 L 255.5 482 Z " /><path fill="rgb(244,221,92)" stroke="rgb(244,221,92)" stroke-width="1" opacity="0.9490196078431372" d="M 245.5 483 L 250 483.5 L 245.5 484 L 245.5 483 Z " /><path fill="rgb(236,196,46)" stroke="rgb(236,196,46)" stroke-width="1" opacity="0.9647058823529412" d="M 402.5 61 L 407.5 63 L 426 76.5 L 370.5 77 L 350 62.5 L 401.5 62 L 402.5 61 Z " /><path fill="rgb(236,196,46)" stroke="rgb(236,196,46)" stroke-width="1" opacity="0.9647058823529412" d="M 398.5 103 L 453.5 103 L 460 109.5 L 466 117.5 L 410.5 118 L 398.5 103 Z " /><path fill="rgb(236,196,46)" stroke="rgb(236,196,46)" stroke-width="1" opacity="0.9647058823529412" d="M 482.5 144 L 485 146.5 L 491 160 L 435.5 160 L 435 157.5 L 428 145.5 L 481.5 145 L 482.5 144 Z " /><path fill="rgb(236,196,46)" stroke="rgb(236,196,46)" stroke-width="1" opacity="0.9647058823529412" d="M 446 186 L 501.5 186 L 502 188.5 L 506 201.5 L 504.5 201 L 451.5 201 L 450.5 202 L 446 186 Z " /><path fill="rgb(236,196,46)" stroke="rgb(236,196,46)" stroke-width="1" opacity="0.9647058823529412" d="M 510.5 226 L 512 243 L 456.5 243 L 456 242.5 L 456 232.5 L 455 228 L 509.5 228 L 510.5 226 Z " /><path fill="rgb(236,196,46)" stroke="rgb(236,196,46)" stroke-width="1" opacity="0.9647058823529412" d="M 456 269 L 511.5 269 L 512 269.5 L 512 276.5 L 511 277.5 L 510.5 286 L 510 284 L 455.5 284 L 455 280.5 L 456 279.5 L 456 269 Z " /><path fill="rgb(236,196,46)" stroke="rgb(236,196,46)" stroke-width="1" opacity="0.9647058823529412" d="M 450.5 310 L 451.5 311 L 504.5 311 L 506 310.5 L 502 326 L 446.5 326 L 446 324.5 L 450.5 310 Z " /><path fill="rgb(236,196,46)" stroke="rgb(236,196,46)" stroke-width="1" opacity="0.9647058823529412" d="M 435 352 L 490.5 352 L 491 353.5 L 482.5 368 L 481.5 367 L 428 366.5 Q 433.2 360.4 435 352 Z " /><path fill="rgb(236,196,46)" stroke="rgb(236,196,46)" stroke-width="1" opacity="0.9647058823529412" d="M 410.5 394 L 466 394.5 L 453.5 409 L 398 408.5 L 410.5 394 Z " /><path fill="rgb(236,196,46)" stroke="rgb(236,196,46)" stroke-width="1" opacity="0.9647058823529412" d="M 451.5 411 L 450.5 413 L 451.5 411 Z " /><path fill="rgb(236,196,46)" stroke="rgb(236,196,46)" stroke-width="1" opacity="0.9647058823529412" d="M 370.5 435 L 426 435.5 L 407.5 449 L 402.5 451 L 401.5 450 L 350 449.5 L 370.5 435 Z " /><path fill="rgb(0,0,0)" stroke="rgb(0,0,0)" stroke-width="1" opacity="0" d="M 0 0 L 512 0 L 512 233.5 L 511 233.5 L 509 213.5 L 504 192.5 Q 496 165 483 142.5 Q 463.9 109.6 436.5 85 Q 398.6 49.9 341.5 34 L 316.5 29 L 296.5 28 L 295.5 27 L 216.5 27 L 215.5 28 L 203.5 28 L 202.5 29 L 189.5 30 L 170.5 34 Q 148.5 40 129.5 49 Q 87.5 69.5 58 102.5 Q 33.6 129.1 18 164.5 L 6 199.5 L 2 219.5 L 0.5 235 L 0 0 Z " /><path fill="rgb(0,0,0)" stroke="rgb(0,0,0)" stroke-width="1" opacity="0" d="M 0.5 277 L 2 292.5 L 6 312.5 L 18 347.5 Q 38.8 394.2 74.5 426 Q 94.7 444.3 119.5 458 Q 142.6 470.4 170.5 478 L 195.5 483 L 215.5 484 L 216.5 485 L 295.5 485 L 296.5 484 L 316.5 483 L 341.5 478 Q 363.5 472 382.5 463 Q 424.6 442.6 454 409.5 Q 478.4 382.9 494 347.5 L 506 312.5 L 511.5 278 L 512 512 L 0 512 L 0.5 277 Z " /><path fill="rgb(249,238,168)" stroke="rgb(249,238,168)" stroke-width="1" opacity="0.7607843137254902" d="M 216.5 27 L 236 27.5 L 216.5 28 L 216.5 27 Z " /><path fill="rgb(249,238,168)" stroke="rgb(249,238,168)" stroke-width="1" opacity="0.7607843137254902" d="M 203.5 28 L 214 28.5 L 196.5 30 L 196.5 29 Q 202 30.5 203.5 28 Z " /><path fill="rgb(249,238,168)" stroke="rgb(249,238,168)" stroke-width="1" opacity="0.7607843137254902" d="M 189.5 30 L 195 30.5 L 184.5 32 L 184.5 31 L 189.5 30 Z " /><path fill="rgb(249,238,168)" stroke="rgb(249,238,168)" stroke-width="1" opacity="0.7607843137254902" d="M 179.5 32 L 183 32.5 L 175.5 34 L 175.5 33 L 179.5 32 Z " /><path fill="rgb(249,238,168)" stroke="rgb(249,238,168)" stroke-width="1" opacity="0.7607843137254902" d="M 170.5 34 L 174 34.5 L 148.5 42 L 114.5 58 Q 86.7 74.2 65 96.5 Q 44.1 117.6 29 144.5 Q 14.2 170.2 6.5 203 L 6 199.5 Q 26.2 127.7 75.5 85 Q 96.1 66.6 121.5 53 Q 143.7 41.2 170.5 34 Z " /><path fill="rgb(249,238,168)" stroke="rgb(249,238,168)" stroke-width="1" opacity="0.7607843137254902" d="M 5.5 204 L 6 207.5 L 3.5 218 L 3 213.5 L 5.5 204 Z " /><path fill="rgb(249,238,168)" stroke="rgb(249,238,168)" stroke-width="1" opacity="0.7607843137254902" d="M 2.5 219 L 3 224.5 L 2 224.5 L 2.5 219 Z " /><path fill="rgb(249,238,168)" stroke="rgb(249,238,168)" stroke-width="1" opacity="0.7607843137254902" d="M 1.5 226 L 2 232.5 L 1 232.5 L 1.5 226 Z " /><path fill="rgb(249,238,168)" stroke="rgb(249,238,168)" stroke-width="1" opacity="0.7607843137254902" d="M 0.5 235 L 1 250.5 L 0 250.5 L 0.5 235 Z " /><path fill="rgb(249,238,168)" stroke="rgb(249,238,168)" stroke-width="1" opacity="0.7607843137254902" d="M 0.5 261 L 1 276.5 L 0 276.5 L 0.5 261 Z " /><path fill="rgb(249,238,168)" stroke="rgb(249,238,168)" stroke-width="1" opacity="0.7607843137254902" d="M 1.5 279 L 2 285.5 L 1 285.5 L 1.5 279 Z " /><path fill="rgb(249,238,168)" stroke="rgb(249,238,168)" stroke-width="1" opacity="0.7607843137254902" d="M 2.5 287 L 3 292.5 L 2 292.5 L 2.5 287 Z " /><path fill="rgb(249,238,168)" stroke="rgb(249,238,168)" stroke-width="1" opacity="0.7607843137254902" d="M 3.5 294 L 6 307.5 L 5 307.5 L 3 298.5 L 3.5 294 Z " /><path fill="rgb(249,238,168)" stroke="rgb(249,238,168)" stroke-width="1" opacity="0.7607843137254902" d="M 6.5 309 Q 14.2 341.8 29 367.5 Q 45.4 396.6 68.5 419 Q 90 440 117 455.5 L 115.5 455 Q 82.1 436.9 58 409.5 Q 40.8 390.7 28 367.5 L 14 337.5 L 6 312.5 L 6.5 309 Z " /><path fill="rgb(249,238,168)" stroke="rgb(249,238,168)" stroke-width="1" opacity="0.7607843137254902" d="M 118.5 456 L 133 463.5 L 131.5 464 L 119.5 458 L 118.5 456 Z " /><path fill="rgb(249,238,168)" stroke="rgb(249,238,168)" stroke-width="1" opacity="0.7607843137254902" d="M 136.5 465 L 140 466.5 L 138.5 467 L 136.5 465 Z " /><path fill="rgb(249,238,168)" stroke="rgb(249,238,168)" stroke-width="1" opacity="0.7607843137254902" d="M 146.5 469 L 150 470.5 L 148.5 471 L 146.5 469 Z " /><path fill="rgb(249,238,168)" stroke="rgb(249,238,168)" stroke-width="1" opacity="0.7607843137254902" d="M 163.5 475 L 166 475.5 L 163.5 476 L 163.5 475 Z " /><path fill="rgb(249,238,168)" stroke="rgb(249,238,168)" stroke-width="1" opacity="0.7607843137254902" d="M 170.5 477 L 173 477.5 L 170.5 478 L 170.5 477 Z " /><path fill="rgb(249,238,168)" stroke="rgb(249,238,168)" stroke-width="1" opacity="0.7607843137254902" d="M 175.5 478 L 178 478.5 L 175.5 479 L 175.5 478 Z " /><path fill="rgb(249,238,168)" stroke="rgb(249,238,168)" stroke-width="1" opacity="0.7607843137254902" d="M 179.5 479 L 182 479.5 L 179.5 480 L 179.5 479 Z " /><path fill="rgb(249,238,168)" stroke="rgb(249,238,168)" stroke-width="1" opacity="0.7607843137254902" d="M 184.5 480 L 187 480.5 L 184.5 481 L 184.5 480 Z " /><path fill="rgb(249,238,168)" stroke="rgb(249,238,168)" stroke-width="1" opacity="0.7607843137254902" d="M 189.5 481 L 193 481.5 L 189.5 482 L 189.5 481 Z " /><path fill="rgb(249,238,168)" stroke="rgb(249,238,168)" stroke-width="1" opacity="0.7607843137254902" d="M 195.5 482 L 201 482.5 L 195.5 483 L 195.5 482 Z " /><path fill="rgb(249,238,168)" stroke="rgb(249,238,168)" stroke-width="1" opacity="0.7607843137254902" d="M 203.5 483 L 210 483.5 L 203.5 484 L 203.5 483 Z " /><path fill="rgb(249,238,168)" stroke="rgb(249,238,168)" stroke-width="1" opacity="0.7607843137254902" d="M 216.5 484 L 237 484.5 L 216.5 485 L 216.5 484 Z " /><path fill="rgb(246,226,102)" stroke="rgb(246,226,102)" stroke-width="1" opacity="0.996078431372549" d="M 387.5 92 L 389.5 95 L 387.5 92 Z " /><path fill="rgb(246,226,102)" stroke="rgb(246,226,102)" stroke-width="1" opacity="0.996078431372549" d="M 456.5 252 L 457 259.5 L 456 259.5 L 456.5 252 Z " /><path fill="rgb(246,226,102)" stroke="rgb(246,226,102)" stroke-width="1" opacity="0.996078431372549" d="M 392.5 414 L 391.5 416 L 392.5 414 Z " /><path fill="rgb(246,226,102)" stroke="rgb(246,226,102)" stroke-width="1" opacity="0.996078431372549" d="M 389.5 417 L 387.5 420 L 389.5 417 Z " /><path fill="rgb(248,239,174)" stroke="rgb(248,239,174)" stroke-width="1" opacity="0.996078431372549" d="M 312.5 44 L 313.5 46 L 312.5 44 Z " /><path fill="rgb(248,239,174)" stroke="rgb(248,239,174)" stroke-width="1" opacity="0.996078431372549" d="M 315.5 46 L 316.5 48 L 315.5 46 Z " /><path fill="rgb(248,239,174)" stroke="rgb(248,239,174)" stroke-width="1" opacity="0.996078431372549" d="M 322.5 51 L 324.5 54 L 322.5 51 Z " /><path fill="rgb(248,239,174)" stroke="rgb(248,239,174)" stroke-width="1" opacity="0.996078431372549" d="M 338.5 64 L 339.5 66 L 338.5 64 Z " /><path fill="rgb(248,239,174)" stroke="rgb(248,239,174)" stroke-width="1" opacity="0.996078431372549" d="M 220.5 70 L 223 70.5 L 220.5 71 L 220.5 70 Z " /><path fill="rgb(248,239,174)" stroke="rgb(248,239,174)" stroke-width="1" opacity="0.996078431372549" d="M 234.5 70 L 237 70.5 L 234.5 71 L 234.5 70 Z " /><path fill="rgb(248,239,174)" stroke="rgb(248,239,174)" stroke-width="1" opacity="0.996078431372549" d="M 349.5 75 L 351.5 78 L 349.5 75 Z " /><path fill="rgb(248,239,174)" stroke="rgb(248,239,174)" stroke-width="1" opacity="0.996078431372549" d="M 357.5 83 L 358.5 85 L 357.5 83 Z " /><path fill="rgb(248,239,174)" stroke="rgb(248,239,174)" stroke-width="1" opacity="0.996078431372549" d="M 362.5 89 L 363.5 91 L 362.5 89 Z " /><path fill="rgb(248,239,174)" stroke="rgb(248,239,174)" stroke-width="1" opacity="0.996078431372549" d="M 365.5 93 L 367.5 96 L 365.5 93 Z " /><path fill="rgb(248,239,174)" stroke="rgb(248,239,174)" stroke-width="1" opacity="0.996078431372549" d="M 372.5 102 L 373.5 104 L 372.5 102 Z " /><path fill="rgb(248,239,174)" stroke="rgb(248,239,174)" stroke-width="1" opacity="0.996078431372549" d="M 376.5 108 L 377.5 110 L 376.5 108 Z " /><path fill="rgb(248,239,174)" stroke="rgb(248,239,174)" stroke-width="1" opacity="0.996078431372549" d="M 378.5 111 L 379.5 113 L 378.5 111 Z " /><path fill="rgb(248,239,174)" stroke="rgb(248,239,174)" stroke-width="1" opacity="0.996078431372549" d="M 346.5 112 L 347.5 114 L 346.5 112 Z " /><path fill="rgb(248,239,174)" stroke="rgb(248,239,174)" stroke-width="1" opacity="0.996078431372549" d="M 354.5 119 L 356.5 122 L 354.5 119 Z " /><path fill="rgb(248,239,174)" stroke="rgb(248,239,174)" stroke-width="1" opacity="0.996078431372549" d="M 101.5 120 L 99.5 123 L 101.5 120 Z " /><path fill="rgb(248,239,174)" stroke="rgb(248,239,174)" stroke-width="1" opacity="0.996078431372549" d="M 97.5 124 L 96.5 126 L 97.5 124 Z " /><path fill="rgb(248,239,174)" stroke="rgb(248,239,174)" stroke-width="1" opacity="0.996078431372549" d="M 361.5 126 L 364.5 130 L 361.5 126 Z " /><path fill="rgb(248,239,174)" stroke="rgb(248,239,174)" stroke-width="1" opacity="0.996078431372549" d="M 94.5 127 L 92.5 130 L 94.5 127 Z " /><path fill="rgb(248,239,174)" stroke="rgb(248,239,174)" stroke-width="1" opacity="0.996078431372549" d="M 388.5 128 L 389.5 130 L 388.5 128 Z " /><path fill="rgb(248,239,174)" stroke="rgb(248,239,174)" stroke-width="1" opacity="0.996078431372549" d="M 81.5 142 L 80.5 144 L 81.5 142 Z " /><path fill="rgb(248,239,174)" stroke="rgb(248,239,174)" stroke-width="1" opacity="0.996078431372549" d="M 254.5 153 L 255 155.5 L 254 155.5 L 254.5 153 Z " /><path fill="rgb(248,239,174)" stroke="rgb(248,239,174)" stroke-width="1" opacity="0.996078431372549" d="M 178.5 157 L 177.5 159 L 178.5 157 Z " /><path fill="rgb(248,239,174)" stroke="rgb(248,239,174)" stroke-width="1" opacity="0.996078431372549" d="M 70.5 158 L 69.5 160 L 70.5 158 Z " /><path fill="rgb(248,239,174)" stroke="rgb(248,239,174)" stroke-width="1" opacity="0.996078431372549" d="M 412.5 198 L 413 200.5 L 412 200.5 L 412.5 198 Z " /><path fill="rgb(248,239,174)" stroke="rgb(248,239,174)" stroke-width="1" opacity="0.996078431372549" d="M 413.5 205 L 414 207.5 L 413 207.5 L 413.5 205 Z " /><path fill="rgb(248,239,174)" stroke="rgb(248,239,174)" stroke-width="1" opacity="0.996078431372549" d="M 414.5 214 L 415 217.5 L 414 217.5 L 414.5 214 Z " /><path fill="rgb(248,239,174)" stroke="rgb(248,239,174)" stroke-width="1" opacity="0.996078431372549" d="M 415.5 234 L 416 236.5 L 415 236.5 L 415.5 234 Z " /><path fill="rgb(248,239,174)" stroke="rgb(248,239,174)" stroke-width="1" opacity="0.996078431372549" d="M 414.5 252 L 415 256.5 L 414 256.5 L 414.5 252 Z " /><path fill="rgb(248,239,174)" stroke="rgb(248,239,174)" stroke-width="1" opacity="0.996078431372549" d="M 281.5 335 L 282.5 337 L 281.5 335 Z " /><path fill="rgb(248,239,174)" stroke="rgb(248,239,174)" stroke-width="1" opacity="0.996078431372549" d="M 284.5 338 L 285.5 340 L 284.5 338 Z " /><path fill="rgb(248,239,174)" stroke="rgb(248,239,174)" stroke-width="1" opacity="0.996078431372549" d="M 165.5 355 L 166 358.5 L 165 358.5 L 165.5 355 Z " /><path fill="rgb(248,239,174)" stroke="rgb(248,239,174)" stroke-width="1" opacity="0.996078431372549" d="M 80.5 368 L 81.5 370 L 80.5 368 Z " /><path fill="rgb(248,239,174)" stroke="rgb(248,239,174)" stroke-width="1" opacity="0.996078431372549" d="M 170.5 371 L 171.5 373 L 170.5 371 Z " /><path fill="rgb(248,239,174)" stroke="rgb(248,239,174)" stroke-width="1" opacity="0.996078431372549" d="M 85.5 374 L 86.5 376 L 85.5 374 Z " /><path fill="rgb(248,239,174)" stroke="rgb(248,239,174)" stroke-width="1" opacity="0.996078431372549" d="M 93.5 383 L 94.5 385 L 93.5 383 Z " /><path fill="rgb(248,239,174)" stroke="rgb(248,239,174)" stroke-width="1" opacity="0.996078431372549" d="M 96.5 386 L 97.5 388 L 96.5 386 Z " /><path fill="rgb(248,239,174)" stroke="rgb(248,239,174)" stroke-width="1" opacity="0.996078431372549" d="M 99.5 389 L 100.5 391 L 99.5 389 Z " /><path fill="rgb(248,239,174)" stroke="rgb(248,239,174)" stroke-width="1" opacity="0.996078431372549" d="M 341.5 403 L 339.5 406 L 341.5 403 Z " /><path fill="rgb(248,239,174)" stroke="rgb(248,239,174)" stroke-width="1" opacity="0.996078431372549" d="M 334.5 408 L 335 409.5 L 332 411.5 L 334.5 408 Z " /><path fill="rgb(248,239,174)" stroke="rgb(248,239,174)" stroke-width="1" opacity="0.996078431372549" d="M 325.5 416 L 323.5 419 L 325.5 416 Z " /><path fill="rgb(248,239,174)" stroke="rgb(248,239,174)" stroke-width="1" opacity="0.996078431372549" d="M 317.5 422 L 316.5 424 L 317.5 422 Z " /><path fill="rgb(248,239,174)" stroke="rgb(248,239,174)" stroke-width="1" opacity="0.996078431372549" d="M 301.5 432 L 300.5 434 L 301.5 432 Z " /><path fill="rgb(248,239,174)" stroke="rgb(248,239,174)" stroke-width="1" opacity="0.996078431372549" d="M 292.5 437 L 294 437.5 L 291.5 439 L 292.5 437 Z " /><path fill="rgb(248,239,174)" stroke="rgb(248,239,174)" stroke-width="1" opacity="0.996078431372549" d="M 228.5 459 L 231 459.5 L 228.5 460 L 228.5 459 Z " /><path fill="rgb(248,239,174)" stroke="rgb(248,239,174)" stroke-width="1" opacity="0.996078431372549" d="M 149.5 460 L 152 460.5 L 149.5 461 L 149.5 460 Z " /><path fill="rgb(248,239,174)" stroke="rgb(248,239,174)" stroke-width="1" opacity="0.996078431372549" d="M 155.5 461 L 159 461.5 L 155.5 462 L 155.5 461 Z " /><path fill="rgb(248,239,174)" stroke="rgb(248,239,174)" stroke-width="1" opacity="0.996078431372549" d="M 215.5 461 L 219 461.5 L 215.5 462 L 215.5 461 Z " /><path fill="rgb(248,239,174)" stroke="rgb(248,239,174)" stroke-width="1" opacity="0.996078431372549" d="M 207.5 462 L 211 462.5 L 207.5 463 L 207.5 462 Z " /><path fill="rgb(248,239,174)" stroke="rgb(248,239,174)" stroke-width="1" opacity="0.996078431372549" d="M 176.5 463 L 185 463.5 L 176.5 464 L 176.5 463 Z " /><path fill="rgb(248,239,174)" stroke="rgb(248,239,174)" stroke-width="1" opacity="0.996078431372549" d="M 191.5 463 L 198 463.5 L 191.5 464 L 191.5 463 Z " /><path fill="rgb(246,226,102)" stroke="rgb(246,226,102)" stroke-width="1" opacity="1" d="M 214.5 71 L 241.5 71 L 242.5 72 L 251.5 72 L 273.5 76 L 290.5 81 Q 310.8 95.2 327 113.5 Q 352.2 141.8 365 182.5 L 370 203.5 L 371 218.5 L 372 219.5 L 372 250.5 L 371 251.5 L 369 272.5 L 366 284.5 L 355 314.5 Q 338.4 348.9 311.5 373 Q 281.7 400.7 237.5 414 L 206.5 420 L 168.5 420 L 167.5 419 L 160.5 419 L 144.5 416 L 128.5 411 L 127.5 412 L 124.5 409 Q 105.3 397.2 91 380.5 Q 67.5 355 54 319.5 L 45 284.5 L 44 264.5 L 43 263.5 L 43 248.5 L 44 247.5 L 45 227.5 L 48 212.5 L 58 182.5 Q 75.2 144.2 104.5 118 Q 126.8 97.8 156.5 85 L 183.5 76 L 205.5 72 L 213.5 72 L 214.5 71 Z M 225 129 L 213 134 Q 203 140 202 153 L 187 153 L 177 158 Q 168 164 166 176 Q 165 189 171 196 Q 177 203 188 206 L 202 206 L 202 207 L 202 329 Q 183 327 174 336 Q 168 342 165 351 L 165 362 L 171 374 Q 177 381 189 383 L 269 383 L 280 379 Q 289 373 292 360 Q 293 347 287 341 L 276 331 L 268 329 L 255 329 L 255 151 L 249 139 L 237 130 L 225 129 Z " /><path fill="rgb(246,226,102)" stroke="rgb(246,226,102)" stroke-width="1" opacity="1" d="M 367.5 133 L 368.5 135 L 367.5 133 Z " /><path fill="rgb(246,226,102)" stroke="rgb(246,226,102)" stroke-width="1" opacity="1" d="M 413.5 244 L 414 246.5 L 413 246.5 L 413.5 244 Z " /><path fill="rgb(246,226,102)" stroke="rgb(246,226,102)" stroke-width="1" opacity="1" d="M 413.5 266 L 414 269.5 L 413 269.5 L 413.5 266 Z " /><path fill="rgb(246,226,102)" stroke="rgb(246,226,102)" stroke-width="1" opacity="1" d="M 374.5 370 L 373.5 372 L 374.5 370 Z " /><path fill="rgb(246,226,102)" stroke="rgb(246,226,102)" stroke-width="1" opacity="1" d="M 370.5 375 L 368.5 378 L 370.5 375 Z " /><path fill="rgb(246,226,102)" stroke="rgb(246,226,102)" stroke-width="1" opacity="1" d="M 360.5 386 L 359.5 388 L 360.5 386 Z " /><path fill="rgb(246,226,102)" stroke="rgb(246,226,102)" stroke-width="1" opacity="1" d="M 349.5 396 L 348.5 398 L 349.5 396 Z " /><path fill="rgb(246,226,102)" stroke="rgb(246,226,102)" stroke-width="1" opacity="1" d="M 226.5 441 L 231 441.5 L 226.5 442 L 226.5 441 Z " /><path fill="rgb(249,239,175)" stroke="rgb(249,239,175)" stroke-width="1" opacity="1" d="M 214.5 28 L 252.5 29 L 285.5 35 L 311.5 44 L 333 59 Q 331.9 61.7 334.5 61 L 341 66 Q 339.9 68.7 342.5 68 L 345 72 L 349 74.5 L 351.5 78 L 355 80.5 L 357 83.5 L 370 98.5 L 383 117.5 L 401 154.5 L 408 176.5 L 413 201.5 L 414 217.5 L 415 218.5 L 415 251.5 L 414 251.5 L 414 240.5 L 413 239.5 L 413 231.5 L 410 214.5 L 400 183.5 Q 384.5 148 358.5 123 Q 356.3 123.8 357 121.5 Q 334.7 99.8 304.5 86 L 283.5 78 L 257.5 72 L 255.5 72 L 234.5 70 L 232.5 71 Q 231 68.5 225.5 70 L 223.5 71 L 220.5 70 L 219.5 71 L 207.5 71 L 185.5 75 L 165.5 81 L 157.5 85 L 154.5 85 L 128.5 99 L 104 117 L 102.5 120 L 99 122.5 Q 99.8 124.8 97.5 124 L 96 127 L 92 129.5 Q 79.1 143.1 69 159.5 L 68 163.5 L 65 166.5 L 59 178.5 L 47 213.5 L 44 230.5 L 44 237.5 L 43 238.5 L 43 240.5 L 43 271.5 L 44 272.5 L 44 274.5 L 44 281.5 L 47 298.5 L 59 333.5 L 65 345.5 L 80 368.5 L 94.5 385 Q 96.8 384.3 96 386.5 L 99 388 L 100.5 391 L 131.5 415 L 164.5 431 L 199.5 440 L 217.5 441 L 218.5 442 L 237.5 442 L 238.5 441 L 257.5 440 L 289.5 432 L 318.5 419 L 333.5 409 L 329.5 414 L 298.5 435 L 282.5 443 L 259.5 452 L 223.5 461 L 185.5 464 L 184.5 463 L 167.5 463 L 166.5 462 L 164.5 462 L 135.5 458 L 106.5 449 Q 83.6 434.4 65 415.5 Q 33.2 383.3 15 337.5 L 7 312.5 L 3 293.5 L 3 286.5 L 1 278.5 L 0 251.5 L 1 250.5 L 1 234.5 L 2 233.5 L 3 218.5 L 6 203.5 L 20 162.5 Q 38.6 122.1 68.5 93 Q 98 64 138.5 46 L 170.5 35 L 195.5 30 L 213.5 29 L 214.5 28 Z " /><path fill="rgb(249,239,175)" stroke="rgb(249,239,175)" stroke-width="1" opacity="1" d="M 222.5 130 L 237.5 131 L 243.5 134 L 249 139.5 L 253 146.5 L 255 156.5 L 255 330 L 270.5 330 L 284 337 L 290 346.5 L 291 361.5 Q 288.9 370.9 282.5 376 L 270.5 382 L 186.5 382 Q 177.1 379.9 172 373.5 L 166 363.5 L 166 355.5 L 165 354.5 L 167 346.5 L 171.5 339 L 176.5 335 Q 184.9 327.7 202 330 L 202 206.5 L 201.5 206 L 189.5 206 L 178 202 Q 179.1 199.3 176.5 200 Q 165.4 193.6 167 174.5 Q 169.1 164.1 176.5 159 L 182.5 155 L 190.5 153 L 192.5 153 L 201.5 153 L 202 151.5 Q 205 140 213.5 134 L 222.5 130 Z " /><path fill="rgb(246,231,129)" stroke="rgb(246,231,129)" stroke-width="1" opacity="0.996078431372549" d="M 313.5 44 Q 365.7 65.8 400 105.5 Q 430.1 138.9 446 186.5 L 451 204.5 L 455 227.5 L 455 236.5 L 456 237.5 L 456 274.5 L 455 275.5 L 454 292.5 L 450 311.5 L 443 334.5 L 433 357.5 Q 411.8 399.8 377.5 429 Q 342.9 459.4 293.5 475 L 278.5 479 L 262.5 482 L 255.5 482 L 254.5 483 L 244.5 483 L 243.5 484 L 210.5 484 L 209.5 483 L 187.5 481 L 162.5 475 Q 133.6 466.4 111 451.5 L 112.5 451 L 126.5 456 L 155.5 462 L 175.5 463 L 176.5 464 L 197.5 464 L 198.5 463 L 210.5 463 L 211.5 462 L 218.5 462 L 235.5 459 L 251.5 455 L 276.5 446 Q 310.5 431.5 336 408.5 L 335.5 407 Q 336.8 409.3 338 406.5 L 338.5 405 Q 340.3 407.8 342 403.5 L 343.5 401 L 361 386.5 Q 388 359.5 403 320.5 L 412 286.5 L 413 270.5 L 414 269.5 L 414 257.5 L 415 256.5 L 415 237.5 L 416 234.5 L 415 233.5 L 414 205.5 L 410 183.5 Q 404.1 158.4 394 137.5 Q 372.8 94.2 338.5 64 L 314.5 46 L 313.5 44 Z " /><path fill="rgb(246,231,129)" stroke="rgb(246,231,129)" stroke-width="1" opacity="0.996078431372549" d="M 226.5 70 L 231 70.5 L 226.5 71 L 226.5 70 Z " /><path fill="rgb(246,231,129)" stroke="rgb(246,231,129)" stroke-width="1" opacity="0.996078431372549" d="M 209.5 71 L 214 71.5 L 209.5 72 L 209.5 71 Z " /><path fill="rgb(246,231,129)" stroke="rgb(246,231,129)" stroke-width="1" opacity="0.996078431372549" d="M 242.5 71 L 248 71.5 L 242.5 72 L 242.5 71 Z " /><path fill="rgb(246,231,129)" stroke="rgb(246,231,129)" stroke-width="1" opacity="0.996078431372549" d="M 201.5 72 L 205 72.5 L 201.5 73 L 201.5 72 Z " /><path fill="rgb(246,231,129)" stroke="rgb(246,231,129)" stroke-width="1" opacity="0.996078431372549" d="M 252.5 72 L 256 72.5 L 252.5 73 L 252.5 72 Z " /><path fill="rgb(246,231,129)" stroke="rgb(246,231,129)" stroke-width="1" opacity="0.996078431372549" d="M 195.5 73 L 198 73.5 L 195.5 74 L 195.5 73 Z " /><path fill="rgb(246,231,129)" stroke="rgb(246,231,129)" stroke-width="1" opacity="0.996078431372549" d="M 259.5 73 L 262 73.5 L 259.5 74 L 259.5 73 Z " /><path fill="rgb(246,231,129)" stroke="rgb(246,231,129)" stroke-width="1" opacity="0.996078431372549" d="M 146.5 89 L 145.5 91 L 146.5 89 Z " /><path fill="rgb(246,231,129)" stroke="rgb(246,231,129)" stroke-width="1" opacity="0.996078431372549" d="M 130.5 98 L 129.5 100 L 130.5 98 Z " /><path fill="rgb(246,231,129)" stroke="rgb(246,231,129)" stroke-width="1" opacity="0.996078431372549" d="M 121.5 104 L 120.5 106 L 121.5 104 Z " /><path fill="rgb(246,231,129)" stroke="rgb(246,231,129)" stroke-width="1" opacity="0.996078431372549" d="M 117.5 107 L 116.5 109 L 117.5 107 Z " /><path fill="rgb(246,231,129)" stroke="rgb(246,231,129)" stroke-width="1" opacity="0.996078431372549" d="M 342.5 109 L 343.5 111 L 342.5 109 Z " /><path fill="rgb(246,231,129)" stroke="rgb(246,231,129)" stroke-width="1" opacity="0.996078431372549" d="M 113.5 110 L 112.5 112 L 113.5 110 Z " /><path fill="rgb(246,231,129)" stroke="rgb(246,231,129)" stroke-width="1" opacity="0.996078431372549" d="M 108.5 114 L 105.5 118 L 108.5 114 Z " /><path fill="rgb(246,231,129)" stroke="rgb(246,231,129)" stroke-width="1" opacity="0.996078431372549" d="M 348.5 114 L 349.5 116 L 348.5 114 Z " /><path fill="rgb(246,231,129)" stroke="rgb(246,231,129)" stroke-width="1" opacity="0.996078431372549" d="M 359.5 124 L 360.5 126 L 359.5 124 Z " /><path fill="rgb(246,231,129)" stroke="rgb(246,231,129)" stroke-width="1" opacity="0.996078431372549" d="M 224.5 129 L 232 129.5 L 224.5 130 L 224.5 129 Z " /><path fill="rgb(246,231,129)" stroke="rgb(246,231,129)" stroke-width="1" opacity="0.996078431372549" d="M 215.5 132 L 214.5 134 L 215.5 132 Z " /><path fill="rgb(246,231,129)" stroke="rgb(246,231,129)" stroke-width="1" opacity="0.996078431372549" d="M 89.5 133 L 86.5 137 L 89.5 133 Z " /><path fill="rgb(246,231,129)" stroke="rgb(246,231,129)" stroke-width="1" opacity="0.996078431372549" d="M 212.5 134 L 207.5 140 L 212.5 134 Z " /><path fill="rgb(246,231,129)" stroke="rgb(246,231,129)" stroke-width="1" opacity="0.996078431372549" d="M 245.5 135 L 248.5 139 L 245.5 135 Z " /><path fill="rgb(246,231,129)" stroke="rgb(246,231,129)" stroke-width="1" opacity="0.996078431372549" d="M 369.5 135 L 370.5 137 L 369.5 135 Z " /><path fill="rgb(246,231,129)" stroke="rgb(246,231,129)" stroke-width="1" opacity="0.996078431372549" d="M 84.5 139 L 82.5 142 L 84.5 139 Z " /><path fill="rgb(246,231,129)" stroke="rgb(246,231,129)" stroke-width="1" opacity="0.996078431372549" d="M 80.5 144 L 79.5 146 L 80.5 144 Z " /><path fill="rgb(246,231,129)" stroke="rgb(246,231,129)" stroke-width="1" opacity="0.996078431372549" d="M 77.5 148 L 76.5 150 L 77.5 148 Z " /><path fill="rgb(246,231,129)" stroke="rgb(246,231,129)" stroke-width="1" opacity="0.996078431372549" d="M 254.5 150 L 255 152.5 L 254 152.5 L 254.5 150 Z " /><path fill="rgb(246,231,129)" stroke="rgb(246,231,129)" stroke-width="1" opacity="0.996078431372549" d="M 75.5 151 L 74.5 153 L 75.5 151 Z " /><path fill="rgb(246,231,129)" stroke="rgb(246,231,129)" stroke-width="1" opacity="0.996078431372549" d="M 186.5 153 L 189 153.5 L 186.5 154 L 186.5 153 Z " /><path fill="rgb(246,231,129)" stroke="rgb(246,231,129)" stroke-width="1" opacity="0.996078431372549" d="M 73.5 154 L 72.5 156 L 73.5 154 Z " /><path fill="rgb(246,231,129)" stroke="rgb(246,231,129)" stroke-width="1" opacity="0.996078431372549" d="M 176.5 158 L 171.5 164 L 176.5 158 Z " /><path fill="rgb(246,231,129)" stroke="rgb(246,231,129)" stroke-width="1" opacity="0.996078431372549" d="M 170.5 165 L 169.5 167 L 170.5 165 Z " /><path fill="rgb(246,231,129)" stroke="rgb(246,231,129)" stroke-width="1" opacity="0.996078431372549" d="M 166.5 175 L 167 183.5 L 166 183.5 L 166.5 175 Z " /><path fill="rgb(246,231,129)" stroke="rgb(246,231,129)" stroke-width="1" opacity="0.996078431372549" d="M 169.5 192 L 170.5 194 L 169.5 192 Z " /><path fill="rgb(246,231,129)" stroke="rgb(246,231,129)" stroke-width="1" opacity="0.996078431372549" d="M 171.5 195 L 176.5 201 L 171.5 195 Z " /><path fill="rgb(246,231,129)" stroke="rgb(246,231,129)" stroke-width="1" opacity="0.996078431372549" d="M 46.5 219 L 47 221.5 L 46 221.5 L 46.5 219 Z " /><path fill="rgb(246,231,129)" stroke="rgb(246,231,129)" stroke-width="1" opacity="0.996078431372549" d="M 44.5 231 L 45 234.5 L 44 234.5 L 44.5 231 Z " /><path fill="rgb(246,231,129)" stroke="rgb(246,231,129)" stroke-width="1" opacity="0.996078431372549" d="M 43.5 240 L 44 247.5 L 43 247.5 L 43.5 240 Z " /><path fill="rgb(246,231,129)" stroke="rgb(246,231,129)" stroke-width="1" opacity="0.996078431372549" d="M 413.5 241 L 414 243.5 L 413 243.5 L 413.5 241 Z " /><path fill="rgb(246,231,129)" stroke="rgb(246,231,129)" stroke-width="1" opacity="0.996078431372549" d="M 43.5 264 L 44 271.5 L 43 271.5 L 43.5 264 Z " /><path fill="rgb(246,231,129)" stroke="rgb(246,231,129)" stroke-width="1" opacity="0.996078431372549" d="M 44.5 277 L 45 280.5 L 44 280.5 L 44.5 277 Z " /><path fill="rgb(246,231,129)" stroke="rgb(246,231,129)" stroke-width="1" opacity="0.996078431372549" d="M 46.5 290 L 47 292.5 L 46 292.5 L 46.5 290 Z " /><path fill="rgb(246,231,129)" stroke="rgb(246,231,129)" stroke-width="1" opacity="0.996078431372549" d="M 188.5 329 L 202 329.5 L 188.5 330 L 188.5 329 Z " /><path fill="rgb(246,231,129)" stroke="rgb(246,231,129)" stroke-width="1" opacity="0.996078431372549" d="M 255.5 329 L 268 329.5 L 255.5 330 L 255.5 329 Z " /><path fill="rgb(246,231,129)" stroke="rgb(246,231,129)" stroke-width="1" opacity="0.996078431372549" d="M 177.5 333 L 176.5 335 L 177.5 333 Z " /><path fill="rgb(246,231,129)" stroke="rgb(246,231,129)" stroke-width="1" opacity="0.996078431372549" d="M 173.5 336 L 172.5 338 L 173.5 336 Z " /><path fill="rgb(246,231,129)" stroke="rgb(246,231,129)" stroke-width="1" opacity="0.996078431372549" d="M 165.5 350 L 166 352.5 L 165 352.5 L 165.5 350 Z " /><path fill="rgb(246,231,129)" stroke="rgb(246,231,129)" stroke-width="1" opacity="0.996078431372549" d="M 291.5 352 L 292 359.5 L 291 359.5 L 291.5 352 Z " /><path fill="rgb(246,231,129)" stroke="rgb(246,231,129)" stroke-width="1" opacity="0.996078431372549" d="M 72.5 356 L 73.5 358 L 72.5 356 Z " /><path fill="rgb(246,231,129)" stroke="rgb(246,231,129)" stroke-width="1" opacity="0.996078431372549" d="M 74.5 359 L 75.5 361 L 74.5 359 Z " /><path fill="rgb(246,231,129)" stroke="rgb(246,231,129)" stroke-width="1" opacity="0.996078431372549" d="M 165.5 359 L 166 361.5 L 165 361.5 L 165.5 359 Z " /><path fill="rgb(246,231,129)" stroke="rgb(246,231,129)" stroke-width="1" opacity="0.996078431372549" d="M 79.5 366 L 80.5 368 L 79.5 366 Z " /><path fill="rgb(246,231,129)" stroke="rgb(246,231,129)" stroke-width="1" opacity="0.996078431372549" d="M 82.5 370 L 84.5 373 L 82.5 370 Z " /><path fill="rgb(246,231,129)" stroke="rgb(246,231,129)" stroke-width="1" opacity="0.996078431372549" d="M 287.5 370 L 286.5 372 L 287.5 370 Z " /><path fill="rgb(246,231,129)" stroke="rgb(246,231,129)" stroke-width="1" opacity="0.996078431372549" d="M 171.5 373 L 174.5 377 L 171.5 373 Z " /><path fill="rgb(246,231,129)" stroke="rgb(246,231,129)" stroke-width="1" opacity="0.996078431372549" d="M 87.5 376 L 90.5 380 L 87.5 376 Z " /><path fill="rgb(246,231,129)" stroke="rgb(246,231,129)" stroke-width="1" opacity="0.996078431372549" d="M 280.5 377 L 279.5 379 L 280.5 377 Z " /><path fill="rgb(246,231,129)" stroke="rgb(246,231,129)" stroke-width="1" opacity="0.996078431372549" d="M 188.5 382 L 269 382.5 L 188.5 383 L 188.5 382 Z " /><path fill="rgb(246,231,129)" stroke="rgb(246,231,129)" stroke-width="1" opacity="0.996078431372549" d="M 105.5 394 L 108.5 398 L 105.5 394 Z " /><path fill="rgb(246,231,129)" stroke="rgb(246,231,129)" stroke-width="1" opacity="0.996078431372549" d="M 112.5 400 L 113.5 402 L 112.5 400 Z " /><path fill="rgb(246,231,129)" stroke="rgb(246,231,129)" stroke-width="1" opacity="0.996078431372549" d="M 116.5 403 L 117.5 405 L 116.5 403 Z " /><path fill="rgb(246,231,129)" stroke="rgb(246,231,129)" stroke-width="1" opacity="0.996078431372549" d="M 120.5 406 L 121.5 408 L 120.5 406 Z " /><path fill="rgb(246,231,129)" stroke="rgb(246,231,129)" stroke-width="1" opacity="0.996078431372549" d="M 219.5 441 L 226 441.5 L 219.5 442 L 219.5 441 Z " /><path fill="rgb(246,231,129)" stroke="rgb(246,231,129)" stroke-width="1" opacity="0.996078431372549" d="M 231.5 441 L 238 441.5 L 231.5 442 L 231.5 441 Z " /><path fill="rgb(241,211,51)" stroke="rgb(241,211,51)" stroke-width="1" opacity="0.9921568627450981" d="M 240.5 27 L 295.5 27 L 296.5 28 L 307.5 28 L 308.5 29 L 328.5 31 Q 371.3 40.3 403 60.5 L 401.5 62 L 348.5 62 Q 326.6 46.9 298.5 38 L 270.5 31 L 265.5 31 L 258.5 29 L 250.5 29 L 249.5 28 L 240.5 28 L 240.5 27 Z " /><path fill="rgb(241,211,51)" stroke="rgb(241,211,51)" stroke-width="1" opacity="0.9921568627450981" d="M 371.5 77 L 426.5 77 L 430 79 Q 428.9 81.7 431.5 81 L 438 86.5 Q 437.3 88.8 439.5 88 L 447 97 L 451 99.5 L 452.5 102 L 454 102.5 L 398.5 103 L 372.5 79 L 371.5 77 Z " /><path fill="rgb(241,211,51)" stroke="rgb(241,211,51)" stroke-width="1" opacity="0.9921568627450981" d="M 292.5 82 Q 337.2 98.8 366 131.5 Q 388.7 156.3 402 190.5 L 411 222.5 L 412 235.5 L 413 236.5 L 413 252.5 L 414 257.5 L 413 258.5 L 413 275.5 L 412 276.5 L 410 294.5 L 398 331.5 Q 381.1 368.6 352.5 394 Q 325.6 418.6 287.5 432 L 269.5 437 L 252.5 440 L 244.5 440 L 243.5 441 L 212.5 441 L 211.5 440 L 203.5 440 L 202.5 439 L 191.5 438 L 166.5 431 L 139.5 419 L 128 411.5 L 129.5 412 L 147.5 417 L 164.5 419 L 165.5 420 L 197.5 421 L 198.5 420 L 208.5 420 L 209.5 419 L 221.5 418 L 238.5 414 L 267.5 403 Q 302.6 385.6 327 357.5 Q 349.1 332.6 362 298.5 L 370 268.5 L 371 255.5 L 372 254.5 L 373 232.5 L 372 231.5 L 372 216.5 L 371 215.5 L 371 208.5 L 368 192.5 Q 362.7 171.3 354 153.5 Q 335.8 117.8 306.5 93 L 293.5 84 L 292.5 82 Z " /><path fill="rgb(241,211,51)" stroke="rgb(241,211,51)" stroke-width="1" opacity="0.9921568627450981" d="M 411.5 118 L 466.5 118 L 468 119.5 L 484 144.5 L 481.5 145 L 428.5 145 L 427 143.5 L 411.5 118 Z " /><path fill="rgb(241,211,51)" stroke="rgb(241,211,51)" stroke-width="1" opacity="0.9921568627450981" d="M 436 160 L 491.5 160 L 492 162.5 L 496 169.5 L 501 186 L 446.5 186 L 445 184.5 Q 441.7 170.4 436 160 Z " /><path fill="rgb(241,211,51)" stroke="rgb(241,211,51)" stroke-width="1" opacity="0.9921568627450981" d="M 451 201 L 504.5 201 L 506 202.5 L 509 213.5 L 510 228 L 455.5 228 Q 454.5 228 455 223.5 L 451 206.5 L 451 201 Z " /><path fill="rgb(241,211,51)" stroke="rgb(241,211,51)" stroke-width="1" opacity="0.9921568627450981" d="M 457 243 L 512 243 L 512 269 L 457 269 L 457 243 Z " /><path fill="rgb(241,211,51)" stroke="rgb(241,211,51)" stroke-width="1" opacity="0.9921568627450981" d="M 455 284 L 509.5 284 L 510 284.5 L 510 292.5 L 507 307.5 L 504.5 311 L 451.5 311 Q 450.4 310.9 451 305.5 L 453 300.5 L 455 284 Z " /><path fill="rgb(241,211,51)" stroke="rgb(241,211,51)" stroke-width="1" opacity="0.9921568627450981" d="M 446.5 326 L 500.5 326 L 501 328.5 L 492 352 L 436.5 352 L 436 350.5 L 446.5 326 Z " /><path fill="rgb(241,211,51)" stroke="rgb(241,211,51)" stroke-width="1" opacity="0.9921568627450981" d="M 428.5 367 L 481.5 367 L 482.5 368 L 484 367.5 L 466.5 394 L 411 393.5 L 428.5 367 Z " /><path fill="rgb(241,211,51)" stroke="rgb(241,211,51)" stroke-width="1" opacity="0.9921568627450981" d="M 398.5 409 L 454 409.5 L 450 412.5 L 448.5 415 Q 446.3 414.3 447 416.5 L 438 424 Q 439.1 426.7 436.5 426 L 430 431 Q 431.1 433.7 428.5 433 L 426.5 435 L 371.5 435 L 372.5 433 L 398.5 409 Z " /><path fill="rgb(241,211,51)" stroke="rgb(241,211,51)" stroke-width="1" opacity="0.9921568627450981" d="M 348.5 450 L 401.5 450 L 403 451.5 L 390.5 459 L 360.5 472 L 328.5 481 L 309.5 483 L 308.5 484 L 295.5 484 L 294.5 485 L 240.5 485 L 240.5 484 L 265.5 482 L 298.5 474 Q 326.4 464.9 348.5 450 Z " /></svg>